<?xml version="1.0" standalone="no"?>
<!DOCTYPE svg PUBLIC "-//W3C//DTD SVG 20010904//EN"
 "http://www.w3.org/TR/2001/REC-SVG-20010904/DTD/svg10.dtd">
<svg version="1.0" xmlns="http://www.w3.org/2000/svg"
 width="512.000000pt" height="405.000000pt" viewBox="0 0 512.000000 405.000000"
 preserveAspectRatio="xMidYMid meet">

<g transform="translate(0.000000,405.000000) scale(0.100000,-0.100000)"
fill="#000000" stroke="none">
<path d="M223 4020 c-55 -12 -91 -31 -130 -72 -61 -63 -63 -75 -63 -419 0
-216 4 -324 12 -353 16 -54 90 -128 144 -144 29 -8 137 -12 353 -12 345 0 348
1 419 65 73 66 77 86 77 445 0 303 -1 317 -21 355 -30 55 -64 89 -115 117 -43
22 -51 23 -339 25 -162 1 -314 -2 -337 -7z m629 -178 c23 -22 23 -27 26 -290
4 -290 1 -323 -29 -353 -18 -18 -35 -19 -316 -19 -291 0 -297 0 -320 22 l-23
21 0 293 c0 161 3 300 6 309 16 40 56 45 351 42 279 -2 283 -2 305 -25z"/>
<path d="M1490 4023 c-57 -21 -76 -80 -39 -127 l20 -26 1788 0 1788 0 21 23
c40 43 25 107 -29 126 -23 8 -528 11 -1783 10 -963 0 -1758 -3 -1766 -6z"/>
<path d="M1475 3168 c-49 -28 -59 -78 -24 -122 l20 -26 840 0 840 0 24 25 c33
33 32 70 -4 106 l-29 29 -824 0 c-600 -1 -828 -4 -843 -12z"/>
<path d="M186 2514 c-60 -22 -101 -58 -130 -116 l-26 -52 0 -321 0 -321 25
-51 c15 -28 41 -63 60 -78 69 -52 93 -55 414 -55 173 0 311 4 333 10 56 16
119 69 147 125 l26 49 0 321 0 321 -26 49 c-28 56 -91 109 -147 125 -60 16
-628 12 -676 -6z m661 -168 l28 -24 0 -297 0 -297 -28 -24 -28 -24 -290 0
-290 0 -24 25 -25 24 0 296 0 296 25 24 24 25 290 0 290 0 28 -24z"/>
<path d="M1455 2505 c-16 -15 -25 -36 -25 -55 0 -19 9 -40 25 -55 l24 -25
1779 0 1779 0 27 21 c35 28 36 80 1 114 l-24 25 -1781 0 -1781 0 -24 -25z"/>
<path d="M1455 1655 c-16 -15 -25 -36 -25 -55 0 -19 9 -40 25 -55 l24 -25 826
0 c609 0 832 3 848 12 52 27 62 83 22 123 l-24 25 -836 0 -836 0 -24 -25z"/>
<path d="M180 1017 c-49 -16 -123 -93 -138 -143 -8 -29 -12 -136 -12 -355 0
-355 2 -362 77 -430 68 -62 83 -64 433 -64 311 0 316 0 359 23 51 28 85 62
115 117 20 38 21 52 21 355 0 350 -2 365 -64 433 -68 76 -74 77 -436 76 -204
-1 -333 -5 -355 -12z m660 -157 c35 -19 40 -64 39 -334 -1 -144 -4 -272 -8
-286 -4 -15 -21 -32 -41 -42 -31 -16 -67 -18 -296 -18 -269 0 -316 6 -334 40
-6 11 -10 140 -10 311 0 287 0 293 22 316 l21 23 294 0 c173 0 302 -4 313 -10z"/>
<path d="M1451 1004 c-35 -45 -24 -96 26 -122 16 -9 463 -12 1783 -12 1879 0
1806 -2 1824 45 13 34 6 72 -17 93 l-23 22 -1786 0 -1787 0 -20 -26z"/>
<path d="M1451 154 c-29 -36 -27 -75 5 -105 l26 -24 835 0 835 0 24 28 c29 34
31 66 3 101 l-20 26 -844 0 -844 0 -20 -26z"/>
</g>
</svg>
